<mxfile host="app.diagrams.net" modified="2024-05-29T14:40:10.767Z" agent="Mozilla/5.0 (Windows NT 10.0; Win64; x64) AppleWebKit/537.36 (KHTML, like Gecko) Chrome/125.0.0.0 Safari/537.36 Edg/125.0.0.0" etag="MBoc_wgbe9EWka3cbR1P" version="24.4.8" type="github">
  <diagram name="Page-1" id="yAY5WPXegIk0J9_iKYAw">
    <mxGraphModel dx="1892" dy="535" grid="1" gridSize="10" guides="1" tooltips="1" connect="1" arrows="1" fold="1" page="1" pageScale="1" pageWidth="850" pageHeight="1100" math="0" shadow="0">
      <root>
        <mxCell id="0" />
        <mxCell id="1" parent="0" />
        <mxCell id="thPGLYvt0QXpAiaXqsxg-1" value="" style="sketch=0;pointerEvents=1;shadow=0;dashed=0;html=1;strokeColor=none;fillColor=#434445;aspect=fixed;labelPosition=center;verticalLabelPosition=bottom;verticalAlign=top;align=center;outlineConnect=0;shape=mxgraph.vvd.web_browser;" vertex="1" parent="1">
          <mxGeometry x="80" y="30" width="183.1" height="130" as="geometry" />
        </mxCell>
        <mxCell id="thPGLYvt0QXpAiaXqsxg-2" value="" style="image;aspect=fixed;html=1;points=[];align=center;fontSize=12;image=img/lib/azure2/networking/DNS_Zones.svg;" vertex="1" parent="1">
          <mxGeometry x="600" y="43" width="117" height="117" as="geometry" />
        </mxCell>
        <mxCell id="thPGLYvt0QXpAiaXqsxg-3" value="" style="endArrow=none;html=1;rounded=0;" edge="1" parent="1">
          <mxGeometry width="50" height="50" relative="1" as="geometry">
            <mxPoint y="200" as="sourcePoint" />
            <mxPoint x="840" y="200" as="targetPoint" />
          </mxGeometry>
        </mxCell>
        <mxCell id="thPGLYvt0QXpAiaXqsxg-4" value="" style="endArrow=classic;html=1;rounded=0;exitX=1.038;exitY=0.231;exitDx=0;exitDy=0;exitPerimeter=0;entryX=0.003;entryY=0.142;entryDx=0;entryDy=0;entryPerimeter=0;" edge="1" parent="1" source="thPGLYvt0QXpAiaXqsxg-1" target="thPGLYvt0QXpAiaXqsxg-2">
          <mxGeometry width="50" height="50" relative="1" as="geometry">
            <mxPoint x="400" y="300" as="sourcePoint" />
            <mxPoint x="450" y="250" as="targetPoint" />
          </mxGeometry>
        </mxCell>
        <mxCell id="thPGLYvt0QXpAiaXqsxg-6" value="www,HappenTN.tn" style="edgeLabel;html=1;align=center;verticalAlign=middle;resizable=0;points=[];" vertex="1" connectable="0" parent="thPGLYvt0QXpAiaXqsxg-4">
          <mxGeometry x="-0.1114" y="4" relative="1" as="geometry">
            <mxPoint as="offset" />
          </mxGeometry>
        </mxCell>
        <mxCell id="thPGLYvt0QXpAiaXqsxg-5" value="" style="endArrow=classic;html=1;rounded=0;entryX=1.038;entryY=0.846;entryDx=0;entryDy=0;entryPerimeter=0;exitX=-0.024;exitY=0.812;exitDx=0;exitDy=0;exitPerimeter=0;" edge="1" parent="1" source="thPGLYvt0QXpAiaXqsxg-2" target="thPGLYvt0QXpAiaXqsxg-1">
          <mxGeometry width="50" height="50" relative="1" as="geometry">
            <mxPoint x="400" y="300" as="sourcePoint" />
            <mxPoint x="450" y="250" as="targetPoint" />
          </mxGeometry>
        </mxCell>
        <mxCell id="thPGLYvt0QXpAiaXqsxg-9" value="198.123.23" style="edgeLabel;html=1;align=center;verticalAlign=middle;resizable=0;points=[];" vertex="1" connectable="0" parent="thPGLYvt0QXpAiaXqsxg-5">
          <mxGeometry x="0.0478" relative="1" as="geometry">
            <mxPoint as="offset" />
          </mxGeometry>
        </mxCell>
        <mxCell id="thPGLYvt0QXpAiaXqsxg-10" value="" style="sketch=0;aspect=fixed;pointerEvents=1;shadow=0;dashed=0;html=1;strokeColor=none;labelPosition=center;verticalLabelPosition=bottom;verticalAlign=top;align=center;fillColor=#00188D;shape=mxgraph.azure.load_balancer_generic" vertex="1" parent="1">
          <mxGeometry x="410" y="350" width="51.8" height="70" as="geometry" />
        </mxCell>
        <mxCell id="thPGLYvt0QXpAiaXqsxg-12" value="" style="endArrow=classic;html=1;rounded=0;entryX=0.015;entryY=0.194;entryDx=0;entryDy=0;entryPerimeter=0;" edge="1" parent="1" source="thPGLYvt0QXpAiaXqsxg-15" target="thPGLYvt0QXpAiaXqsxg-10">
          <mxGeometry width="50" height="50" relative="1" as="geometry">
            <mxPoint x="180" y="200" as="sourcePoint" />
            <mxPoint x="450" y="350" as="targetPoint" />
          </mxGeometry>
        </mxCell>
        <mxCell id="thPGLYvt0QXpAiaXqsxg-16" value="" style="endArrow=classic;html=1;rounded=0;entryX=0.015;entryY=0.194;entryDx=0;entryDy=0;entryPerimeter=0;" edge="1" parent="1" target="thPGLYvt0QXpAiaXqsxg-15">
          <mxGeometry width="50" height="50" relative="1" as="geometry">
            <mxPoint x="180" y="200" as="sourcePoint" />
            <mxPoint x="411" y="364" as="targetPoint" />
          </mxGeometry>
        </mxCell>
        <mxCell id="thPGLYvt0QXpAiaXqsxg-17" value="REQEUST" style="edgeLabel;html=1;align=center;verticalAlign=middle;resizable=0;points=[];" vertex="1" connectable="0" parent="thPGLYvt0QXpAiaXqsxg-16">
          <mxGeometry x="-0.0042" relative="1" as="geometry">
            <mxPoint as="offset" />
          </mxGeometry>
        </mxCell>
        <mxCell id="thPGLYvt0QXpAiaXqsxg-15" value="" style="image;html=1;image=img/lib/clip_art/networking/Firewall_02_128x128.png" vertex="1" parent="1">
          <mxGeometry x="340" y="300" width="50" height="50" as="geometry" />
        </mxCell>
        <mxCell id="thPGLYvt0QXpAiaXqsxg-19" value="Firewall" style="text;html=1;align=center;verticalAlign=middle;resizable=0;points=[];autosize=1;strokeColor=none;fillColor=none;" vertex="1" parent="1">
          <mxGeometry x="330" y="350" width="60" height="30" as="geometry" />
        </mxCell>
        <mxCell id="thPGLYvt0QXpAiaXqsxg-20" value="" style="endArrow=none;html=1;rounded=0;" edge="1" parent="1">
          <mxGeometry width="50" height="50" relative="1" as="geometry">
            <mxPoint y="560" as="sourcePoint" />
            <mxPoint x="840" y="560" as="targetPoint" />
          </mxGeometry>
        </mxCell>
        <mxCell id="thPGLYvt0QXpAiaXqsxg-21" value="" style="image;aspect=fixed;html=1;points=[];align=center;fontSize=12;image=img/lib/azure2/networking/Web_Application_Firewall_Policies_WAF.svg;" vertex="1" parent="1">
          <mxGeometry x="401.9" y="480" width="68" height="68" as="geometry" />
        </mxCell>
        <mxCell id="thPGLYvt0QXpAiaXqsxg-22" value="" style="endArrow=classic;html=1;rounded=0;exitX=0.472;exitY=-0.067;exitDx=0;exitDy=0;exitPerimeter=0;entryX=0.519;entryY=-0.012;entryDx=0;entryDy=0;entryPerimeter=0;" edge="1" parent="1" target="thPGLYvt0QXpAiaXqsxg-21">
          <mxGeometry width="50" height="50" relative="1" as="geometry">
            <mxPoint x="437.20000000000005" y="425.99" as="sourcePoint" />
            <mxPoint x="450" y="450" as="targetPoint" />
          </mxGeometry>
        </mxCell>
        <mxCell id="thPGLYvt0QXpAiaXqsxg-23" value="Load Balancer" style="text;html=1;align=center;verticalAlign=middle;resizable=0;points=[];autosize=1;strokeColor=none;fillColor=none;" vertex="1" parent="1">
          <mxGeometry x="461.8" y="380" width="100" height="30" as="geometry" />
        </mxCell>
        <mxCell id="thPGLYvt0QXpAiaXqsxg-26" value="" style="image;aspect=fixed;perimeter=ellipsePerimeter;html=1;align=center;shadow=0;dashed=0;spacingTop=3;image=img/lib/active_directory/web_server.svg;" vertex="1" parent="1">
          <mxGeometry x="401.9" y="650" width="88" height="110" as="geometry" />
        </mxCell>
        <mxCell id="thPGLYvt0QXpAiaXqsxg-27" value="Web Server" style="text;html=1;align=center;verticalAlign=middle;resizable=0;points=[];autosize=1;strokeColor=none;fillColor=none;" vertex="1" parent="1">
          <mxGeometry x="390.9" y="770" width="90" height="30" as="geometry" />
        </mxCell>
        <mxCell id="thPGLYvt0QXpAiaXqsxg-28" value="" style="endArrow=classic;html=1;rounded=0;entryX=0.428;entryY=-0.044;entryDx=0;entryDy=0;entryPerimeter=0;" edge="1" parent="1" target="thPGLYvt0QXpAiaXqsxg-26">
          <mxGeometry width="50" height="50" relative="1" as="geometry">
            <mxPoint x="440" y="560" as="sourcePoint" />
            <mxPoint x="450" y="750" as="targetPoint" />
          </mxGeometry>
        </mxCell>
        <mxCell id="thPGLYvt0QXpAiaXqsxg-29" value="" style="endArrow=none;html=1;rounded=0;" edge="1" parent="1">
          <mxGeometry width="50" height="50" relative="1" as="geometry">
            <mxPoint y="840" as="sourcePoint" />
            <mxPoint x="840" y="840" as="targetPoint" />
          </mxGeometry>
        </mxCell>
        <mxCell id="thPGLYvt0QXpAiaXqsxg-30" value="a" style="endArrow=classic;html=1;rounded=0;" edge="1" parent="1">
          <mxGeometry width="50" height="50" relative="1" as="geometry">
            <mxPoint x="430" y="840" as="sourcePoint" />
            <mxPoint x="430" y="930" as="targetPoint" />
          </mxGeometry>
        </mxCell>
        <mxCell id="thPGLYvt0QXpAiaXqsxg-31" value="" style="image;aspect=fixed;perimeter=ellipsePerimeter;html=1;align=center;shadow=0;dashed=0;fontColor=#4277BB;labelBackgroundColor=default;fontSize=12;spacingTop=3;image=img/lib/ibm/applications/app_server.svg;" vertex="1" parent="1">
          <mxGeometry x="390.90000000000003" y="940" width="80" height="80" as="geometry" />
        </mxCell>
        <mxCell id="thPGLYvt0QXpAiaXqsxg-32" value="app server" style="text;html=1;align=center;verticalAlign=middle;resizable=0;points=[];autosize=1;strokeColor=none;fillColor=none;" vertex="1" parent="1">
          <mxGeometry x="395.9" y="1038" width="80" height="30" as="geometry" />
        </mxCell>
        <mxCell id="thPGLYvt0QXpAiaXqsxg-33" value="" style="image;aspect=fixed;perimeter=ellipsePerimeter;html=1;align=center;shadow=0;dashed=0;spacingTop=3;image=img/lib/active_directory/database_server.svg;" vertex="1" parent="1">
          <mxGeometry x="730" y="930" width="73.8" height="90" as="geometry" />
        </mxCell>
        <mxCell id="thPGLYvt0QXpAiaXqsxg-34" value="Database Read" style="text;html=1;align=center;verticalAlign=middle;resizable=0;points=[];autosize=1;strokeColor=none;fillColor=none;" vertex="1" parent="1">
          <mxGeometry x="705" y="1028" width="110" height="30" as="geometry" />
        </mxCell>
        <mxCell id="thPGLYvt0QXpAiaXqsxg-35" value="" style="endArrow=classic;startArrow=classic;html=1;rounded=0;" edge="1" parent="1">
          <mxGeometry width="50" height="50" relative="1" as="geometry">
            <mxPoint x="480" y="1000" as="sourcePoint" />
            <mxPoint x="710" y="1000" as="targetPoint" />
          </mxGeometry>
        </mxCell>
        <mxCell id="thPGLYvt0QXpAiaXqsxg-37" value="Data pipeline" style="edgeLabel;html=1;align=center;verticalAlign=middle;resizable=0;points=[];" vertex="1" connectable="0" parent="thPGLYvt0QXpAiaXqsxg-35">
          <mxGeometry x="-0.0191" relative="1" as="geometry">
            <mxPoint as="offset" />
          </mxGeometry>
        </mxCell>
        <mxCell id="thPGLYvt0QXpAiaXqsxg-38" value="" style="outlineConnect=0;dashed=0;verticalLabelPosition=bottom;verticalAlign=top;align=center;html=1;shape=mxgraph.aws3.rds_db_instance_read_replica;fillColor=#2E73B8;gradientColor=none;" vertex="1" parent="1">
          <mxGeometry x="384.4" y="1190" width="103" height="90" as="geometry" />
        </mxCell>
        <mxCell id="thPGLYvt0QXpAiaXqsxg-39" value="Database Replica" style="text;html=1;align=center;verticalAlign=middle;resizable=0;points=[];autosize=1;strokeColor=none;fillColor=none;" vertex="1" parent="1">
          <mxGeometry x="375.9" y="1280" width="120" height="30" as="geometry" />
        </mxCell>
        <mxCell id="thPGLYvt0QXpAiaXqsxg-40" value="" style="endArrow=classic;startArrow=classic;html=1;rounded=0;entryX=0.475;entryY=1.08;entryDx=0;entryDy=0;entryPerimeter=0;" edge="1" parent="1" target="thPGLYvt0QXpAiaXqsxg-34">
          <mxGeometry width="50" height="50" relative="1" as="geometry">
            <mxPoint x="470" y="1180" as="sourcePoint" />
            <mxPoint x="450" y="1150" as="targetPoint" />
          </mxGeometry>
        </mxCell>
        <mxCell id="thPGLYvt0QXpAiaXqsxg-47" value="Data pipeline" style="edgeLabel;html=1;align=center;verticalAlign=middle;resizable=0;points=[];" vertex="1" connectable="0" parent="thPGLYvt0QXpAiaXqsxg-40">
          <mxGeometry x="0.0001" y="1" relative="1" as="geometry">
            <mxPoint as="offset" />
          </mxGeometry>
        </mxCell>
        <mxCell id="thPGLYvt0QXpAiaXqsxg-41" value="" style="endArrow=none;dashed=1;html=1;dashPattern=1 3;strokeWidth=2;rounded=0;" edge="1" parent="1">
          <mxGeometry width="50" height="50" relative="1" as="geometry">
            <mxPoint y="1080" as="sourcePoint" />
            <mxPoint x="840" y="1080" as="targetPoint" />
          </mxGeometry>
        </mxCell>
        <mxCell id="thPGLYvt0QXpAiaXqsxg-42" value="" style="image;aspect=fixed;perimeter=ellipsePerimeter;html=1;align=center;shadow=0;dashed=0;spacingTop=3;image=img/lib/active_directory/database_server.svg;" vertex="1" parent="1">
          <mxGeometry x="120" y="930" width="73.8" height="90" as="geometry" />
        </mxCell>
        <mxCell id="thPGLYvt0QXpAiaXqsxg-43" value="Database Write" style="text;html=1;align=center;verticalAlign=middle;resizable=0;points=[];autosize=1;strokeColor=none;fillColor=none;" vertex="1" parent="1">
          <mxGeometry x="95" y="1028" width="110" height="30" as="geometry" />
        </mxCell>
        <mxCell id="thPGLYvt0QXpAiaXqsxg-44" value="" style="endArrow=classic;startArrow=classic;html=1;rounded=0;entryX=0.715;entryY=0.973;entryDx=0;entryDy=0;entryPerimeter=0;" edge="1" parent="1" target="thPGLYvt0QXpAiaXqsxg-43">
          <mxGeometry width="50" height="50" relative="1" as="geometry">
            <mxPoint x="390" y="1180" as="sourcePoint" />
            <mxPoint x="450" y="1050" as="targetPoint" />
          </mxGeometry>
        </mxCell>
        <mxCell id="thPGLYvt0QXpAiaXqsxg-48" value="Data pipeline" style="edgeLabel;html=1;align=center;verticalAlign=middle;resizable=0;points=[];" vertex="1" connectable="0" parent="thPGLYvt0QXpAiaXqsxg-44">
          <mxGeometry x="0.0668" y="2" relative="1" as="geometry">
            <mxPoint y="1" as="offset" />
          </mxGeometry>
        </mxCell>
        <mxCell id="thPGLYvt0QXpAiaXqsxg-45" value="" style="endArrow=classic;startArrow=classic;html=1;rounded=0;" edge="1" parent="1">
          <mxGeometry width="50" height="50" relative="1" as="geometry">
            <mxPoint x="200" y="1000" as="sourcePoint" />
            <mxPoint x="390" y="1000" as="targetPoint" />
          </mxGeometry>
        </mxCell>
        <mxCell id="thPGLYvt0QXpAiaXqsxg-46" value="Data pipeline" style="edgeLabel;html=1;align=center;verticalAlign=middle;resizable=0;points=[];" vertex="1" connectable="0" parent="thPGLYvt0QXpAiaXqsxg-45">
          <mxGeometry x="-0.1116" y="-2" relative="1" as="geometry">
            <mxPoint as="offset" />
          </mxGeometry>
        </mxCell>
        <mxCell id="thPGLYvt0QXpAiaXqsxg-49" value="" style="image;sketch=0;aspect=fixed;html=1;points=[];align=center;fontSize=12;image=img/lib/mscae/Web_App_Firewall.svg;" vertex="1" parent="1">
          <mxGeometry x="409.9" y="850" width="60" height="60" as="geometry" />
        </mxCell>
        <mxCell id="thPGLYvt0QXpAiaXqsxg-50" value="" style="endArrow=none;dashed=1;html=1;rounded=0;" edge="1" parent="1">
          <mxGeometry width="50" height="50" relative="1" as="geometry">
            <mxPoint y="1360" as="sourcePoint" />
            <mxPoint x="840" y="1360" as="targetPoint" />
          </mxGeometry>
        </mxCell>
        <mxCell id="thPGLYvt0QXpAiaXqsxg-51" value="" style="image;aspect=fixed;perimeter=ellipsePerimeter;html=1;align=center;shadow=0;dashed=0;fontColor=#4277BB;labelBackgroundColor=default;fontSize=12;spacingTop=3;image=img/lib/ibm/infrastructure/monitoring.svg;" vertex="1" parent="1">
          <mxGeometry x="340.9" y="1530" width="180" height="180" as="geometry" />
        </mxCell>
        <mxCell id="thPGLYvt0QXpAiaXqsxg-52" value="" style="shape=curlyBracket;whiteSpace=wrap;html=1;rounded=1;labelPosition=left;verticalLabelPosition=middle;align=right;verticalAlign=middle;direction=north;" vertex="1" parent="1">
          <mxGeometry x="50" y="1460" width="750" height="60" as="geometry" />
        </mxCell>
        <mxCell id="thPGLYvt0QXpAiaXqsxg-54" value="Monitoring System" style="text;html=1;align=center;verticalAlign=middle;resizable=0;points=[];autosize=1;strokeColor=none;fillColor=none;" vertex="1" parent="1">
          <mxGeometry x="360" y="1708" width="120" height="30" as="geometry" />
        </mxCell>
        <mxCell id="thPGLYvt0QXpAiaXqsxg-56" value="" style="endArrow=classic;html=1;rounded=0;" edge="1" parent="1" source="thPGLYvt0QXpAiaXqsxg-31">
          <mxGeometry width="50" height="50" relative="1" as="geometry">
            <mxPoint x="400" y="1400" as="sourcePoint" />
            <mxPoint x="120" y="220" as="targetPoint" />
            <Array as="points">
              <mxPoint x="120" y="880" />
            </Array>
          </mxGeometry>
        </mxCell>
        <mxCell id="thPGLYvt0QXpAiaXqsxg-57" value="Response" style="edgeLabel;html=1;align=center;verticalAlign=middle;resizable=0;points=[];" vertex="1" connectable="0" parent="thPGLYvt0QXpAiaXqsxg-56">
          <mxGeometry x="-0.6427" y="-2" relative="1" as="geometry">
            <mxPoint as="offset" />
          </mxGeometry>
        </mxCell>
      </root>
    </mxGraphModel>
  </diagram>
</mxfile>
